<svg width="688" height="273" viewBox="0 0 688 273" fill="none" xmlns="http://www.w3.org/2000/svg">
<path d="M0.650001 12H68.6C79.9 12 90.35 13.55 99.95 16.65C109.65 19.75 117.45 24.85 123.35 31.95C129.35 38.95 132.35 48.45 132.35 60.45C132.35 68.35 130.85 75.4 127.85 81.6C124.95 87.8 121.05 92.9 116.15 96.9C111.35 100.8 106.1 103.4 100.4 104.7C105.4 105.3 110.25 106.75 114.95 109.05C119.75 111.25 124.05 114.35 127.85 118.35C131.75 122.25 134.8 127.15 137 133.05C139.3 138.85 140.45 145.75 140.45 153.75C140.45 164.85 137.95 174.65 132.95 183.15C128.05 191.55 120.85 198.15 111.35 202.95C101.95 207.65 90.4 210 76.7 210H0.650001V12ZM45.5 174.15H65.9C72.3 174.15 77.5 173.2 81.5 171.3C85.6 169.3 88.6 166.5 90.5 162.9C92.4 159.2 93.35 154.8 93.35 149.7C93.35 141.7 90.85 135.85 85.85 132.15C80.95 128.35 74.05 126.45 65.15 126.45H45.5V174.15ZM45.5 91.35H63.65C68.95 91.35 73.35 90.4 76.85 88.5C80.45 86.6 83.15 83.95 84.95 80.55C86.85 77.05 87.8 73.05 87.8 68.55C87.8 60.45 85.5 55 80.9 52.2C76.3 49.3 70 47.85 62 47.85H45.5V91.35ZM178.878 210H133.278V86.85H178.878V105.9H178.128C178.928 103.6 180.878 100.7 183.978 97.2C187.078 93.6 191.428 90.4 197.028 87.6C202.628 84.7 209.478 83.25 217.578 83.25C223.278 83.25 228.528 84.15 233.328 85.95C238.128 87.65 241.628 89.3 243.828 90.9L226.128 127.95C224.728 126.25 222.228 124.5 218.628 122.7C215.128 120.8 210.728 119.85 205.428 119.85C199.328 119.85 194.278 121.4 190.278 124.5C186.378 127.6 183.478 131.35 181.578 135.75C179.778 140.15 178.878 144.3 178.878 148.2V210ZM227.623 210V86.85H273.223V210H227.623ZM251.023 61.5C243.823 61.5 237.723 59 232.723 54C227.723 48.9 225.223 42.85 225.223 35.85C225.223 28.85 227.723 22.8 232.723 17.7C237.823 12.5 243.923 9.89998 251.023 9.89998C255.723 9.89998 260.023 11.1 263.923 13.5C267.823 15.8 270.973 18.9 273.373 22.8C275.773 26.7 276.973 31.05 276.973 35.85C276.973 42.85 274.423 48.9 269.323 54C264.223 59 258.123 61.5 251.023 61.5ZM265.189 86.85H285.589V54.3C285.589 42.3 288.139 32.3 293.239 24.3C298.339 16.3 304.939 10.25 313.039 6.14999C321.139 2.04999 329.539 -1.43051e-05 338.239 -1.43051e-05C349.039 -1.43051e-05 357.239 1.44999 362.839 4.34999C368.539 7.25 372.139 9.4 373.639 10.8L356.239 44.25C355.739 43.45 354.489 42.3 352.489 40.8C350.489 39.3 347.839 38.55 344.539 38.55C342.439 38.55 340.339 39.1 338.239 40.2C336.139 41.3 334.389 43.25 332.989 46.05C331.689 48.85 331.039 52.95 331.039 58.35V86.85H361.489V124.35H331.039V210H285.589V124.35H265.189V86.85ZM382.039 210V86.85H427.639V210H382.039ZM405.439 61.5C398.239 61.5 392.139 59 387.139 54C382.139 48.9 379.639 42.85 379.639 35.85C379.639 28.85 382.139 22.8 387.139 17.7C392.239 12.5 398.339 9.89998 405.439 9.89998C410.139 9.89998 414.439 11.1 418.339 13.5C422.239 15.8 425.389 18.9 427.789 22.8C430.189 26.7 431.389 31.05 431.389 35.85C431.389 42.85 428.839 48.9 423.739 54C418.639 59 412.539 61.5 405.439 61.5ZM419.759 86.85H440.159V54.3C440.159 42.3 442.709 32.3 447.809 24.3C452.909 16.3 459.509 10.25 467.609 6.14999C475.709 2.04999 484.109 -1.43051e-05 492.809 -1.43051e-05C503.609 -1.43051e-05 511.809 1.44999 517.409 4.34999C523.109 7.25 526.709 9.4 528.209 10.8L510.809 44.25C510.309 43.45 509.059 42.3 507.059 40.8C505.059 39.3 502.409 38.55 499.109 38.55C497.009 38.55 494.909 39.1 492.809 40.2C490.709 41.3 488.959 43.25 487.559 46.05C486.259 48.85 485.609 52.95 485.609 58.35V86.85H516.059V124.35H485.609V210H440.159V124.35H419.759V86.85ZM567.071 170.55L600.371 86.85H645.071L560.471 272.4H514.871L543.371 210L491.921 86.85H537.371L567.071 170.55ZM659.966 213.6C652.566 213.6 646.166 210.95 640.766 205.65C635.466 200.25 632.816 193.85 632.816 186.45C632.816 178.85 635.466 172.4 640.766 167.1C646.166 161.7 652.566 159 659.966 159C667.566 159 674.016 161.7 679.316 167.1C684.616 172.4 687.266 178.85 687.266 186.45C687.266 193.85 684.616 200.25 679.316 205.65C674.016 210.95 667.566 213.6 659.966 213.6Z" fill="#6017E7"/>
</svg>
